<svg width="35" height="35" viewBox="0 0 35 35" fill="none" xmlns="http://www.w3.org/2000/svg">
<path fill-rule="evenodd" clip-rule="evenodd" d="M29.1667 17.5978H5.83341C4.22196 17.5978 2.91675 18.903 2.91675 20.5144V24.7917C2.91675 25.5967 3.57008 26.2501 4.37508 26.2501H30.6251C31.4301 26.2501 32.0834 25.5967 32.0834 24.7917V20.5144C32.0834 18.903 30.7782 17.5978 29.1667 17.5978Z" stroke="#DBA237" stroke-width="1.5" stroke-linecap="round" stroke-linejoin="round"/>
<path d="M5.10425 17.6896V17.5977V17.5977C5.10425 15.1273 7.10654 13.125 9.57696 13.125H12.9792C15.0734 13.125 16.7709 14.8225 16.7709 16.9167V17.5977" stroke="#DBA237" stroke-width="1.5" stroke-linecap="round" stroke-linejoin="round"/>
<path d="M16.771 17.5977V17.5977C16.771 15.1273 18.7733 13.125 21.2437 13.125H25.4247C27.8952 13.125 29.8975 15.1273 29.8975 17.5977V17.5977V17.6896" stroke="#DBA237" stroke-width="1.5" stroke-linecap="round" stroke-linejoin="round"/>
<path d="M5.8335 15.1521V10.2084C5.8335 7.79192 7.79204 5.83337 10.2085 5.83337H24.7918C27.2083 5.83337 29.1668 7.79192 29.1668 10.2084V15.1521" stroke="#DBA237" stroke-width="1.5" stroke-linecap="round" stroke-linejoin="round"/>
<path d="M30.6252 26.25V29.1667" stroke="#DBA237" stroke-width="1.5" stroke-linecap="round" stroke-linejoin="round"/>
<path d="M4.37516 26.25V29.1667" stroke="#DBA237" stroke-width="1.5" stroke-linecap="round" stroke-linejoin="round"/>
</svg>
