<svg width="98" height="97" viewBox="0 0 98 97" fill="none" xmlns="http://www.w3.org/2000/svg">
<path fill-rule="evenodd" clip-rule="evenodd" d="M43.2609 84.5194L12.9848 54.2392C9.81205 51.0665 9.81205 45.9255 12.9848 42.7568L43.2609 12.4848C46.4336 9.31205 51.5746 9.31205 54.7473 12.4848L85.0234 42.7568C88.1961 45.9296 88.1961 51.0706 85.0234 54.2392L54.7473 84.5113C51.5746 87.6881 46.4336 87.6881 43.2609 84.5194Z" fill="none" stroke="#D4B478" stroke-width="1.5" stroke-linecap="round" stroke-linejoin="round"/>
<path fill-rule="evenodd" clip-rule="evenodd" d="M48.9958 58.1351L57.164 62.395C58.7523 63.2235 60.6115 61.8858 60.3084 60.1276L58.7483 51.1026L65.3564 44.7127C66.6417 43.4679 65.9344 41.2975 64.1561 41.0429L55.0259 39.7293L50.9398 31.5126C50.1436 29.9121 47.8439 29.9121 47.0517 31.5126L42.9737 39.7293L33.8436 41.0469C32.0652 41.3015 31.3539 43.4719 32.6432 44.7168L39.2513 51.1066L37.6912 60.1317C37.3881 61.8898 39.2473 63.2276 40.8356 62.399L49.0038 58.1391" fill="none"/>
<path d="M48.9958 58.1351L57.164 62.395C58.7523 63.2235 60.6115 61.8858 60.3084 60.1276L58.7483 51.1026L65.3564 44.7127C66.6417 43.4679 65.9344 41.2975 64.1561 41.0429L55.0259 39.7293L50.9398 31.5126C50.1436 29.9121 47.8439 29.9121 47.0517 31.5126L42.9737 39.7293L33.8436 41.0469C32.0652 41.3015 31.3539 43.4719 32.6432 44.7168L39.2513 51.1066L37.6912 60.1317C37.3881 61.8898 39.2473 63.2276 40.8356 62.399L49.0038 58.1391" stroke="#D4B478" stroke-width="1.5" stroke-linecap="round" stroke-linejoin="round"/>
</svg>
