<svg width="98" height="97" viewBox="0 0 98 97" fill="none" xmlns="http://www.w3.org/2000/svg">
<path fill-rule="evenodd" clip-rule="evenodd" d="M69.6036 49.0007L47.7826 66.4575C46.1738 67.7445 43.8545 67.6161 42.3977 66.1592L31.3423 55.1038C29.8854 53.647 29.757 51.3277 31.044 49.7189L48.5008 27.8979C56.4833 17.9198 68.5686 12.1113 81.3468 12.1113C83.5799 12.1113 85.3902 13.9216 85.3902 16.1547C85.3902 28.9329 79.5817 41.0183 69.6036 49.0007Z" fill="none"/>
<path fill-rule="evenodd" clip-rule="evenodd" d="M65.1734 52.5448V70.2628C65.1734 71.7943 64.3081 73.1943 62.9383 73.8793L53.1698 78.7636C52.1215 79.2878 50.8972 79.3312 49.8143 78.8827C48.7314 78.4341 47.8964 77.5377 47.5258 76.4258L44.9567 68.7182" fill="none"/>
<path fill-rule="evenodd" clip-rule="evenodd" d="M28.7833 52.5448L21.076 49.9757C19.964 49.6051 19.0676 48.7701 18.6191 47.6872C18.1705 46.6043 18.2139 45.38 18.7381 44.3317L23.6225 34.5632C24.3074 33.1935 25.7073 32.3281 27.2387 32.3281H44.9567" fill="none"/>
<path fill-rule="evenodd" clip-rule="evenodd" d="M23.7295 83.2211L12.6099 84.8916L14.2804 73.772C14.8223 70.1648 17.654 67.3331 21.2612 66.7912C23.8678 66.3995 26.5057 67.2682 28.3696 69.1321C30.2335 70.996 31.1022 73.6338 30.7105 76.2405C30.1685 79.8477 27.3367 82.6793 23.7295 83.2211Z" fill="none"/>
<path d="M65.1734 52.5448V70.2628C65.1734 71.7943 64.3081 73.1943 62.9383 73.8793L53.1698 78.7636C52.1215 79.2878 50.8972 79.3312 49.8143 78.8827C48.7314 78.4341 47.8964 77.5377 47.5258 76.4258L44.9567 68.7182M28.7833 52.5448L21.076 49.9757C19.964 49.6051 19.0676 48.7701 18.6191 47.6872C18.1705 46.6043 18.2139 45.38 18.7381 44.3317L23.6225 34.5632C24.3074 33.1935 25.7073 32.3281 27.2387 32.3281H44.9567M69.6036 49.0007L47.7826 66.4575C46.1738 67.7445 43.8545 67.6161 42.3977 66.1592L31.3423 55.1038C29.8854 53.647 29.757 51.3277 31.044 49.7189L48.5008 27.8979C56.4833 17.9198 68.5686 12.1113 81.3468 12.1113C83.5799 12.1113 85.3902 13.9216 85.3902 16.1547C85.3902 28.9329 79.5817 41.0183 69.6036 49.0007ZM23.7295 83.2211L12.6099 84.8916L14.2804 73.772C14.8223 70.1648 17.654 67.3331 21.2612 66.7912C23.8678 66.3995 26.5057 67.2682 28.3696 69.1321C30.2335 70.996 31.1022 73.6338 30.7105 76.2405C30.1685 79.8477 27.3367 82.6793 23.7295 83.2211Z" stroke="#D4B478" stroke-width="1.5" stroke-linecap="round" stroke-linejoin="round"/>
</svg>
