<svg width="35" height="35" viewBox="0 0 35 35" fill="none" xmlns="http://www.w3.org/2000/svg">
<path fill-rule="evenodd" clip-rule="evenodd" d="M21.1852 13.3H16.733C15.7369 13.3 15.034 12.3244 15.349 11.3809V11.3809C15.8375 9.9138 17.2098 8.92505 18.7557 8.92505H19.1611C20.7069 8.92505 22.0792 9.9138 22.5677 11.3809V11.3809C22.8827 12.3244 22.1798 13.3 21.1852 13.3V13.3Z" stroke="#DBA237" stroke-width="1.5" stroke-linecap="round" stroke-linejoin="round"/>
<path d="M10.198 19.3419H5.83323C4.93781 19.3419 4.25386 20.1411 4.3924 21.0248L4.89406 24.2332C5.3374 27.074 7.78302 29.1667 10.6574 29.1667H24.3424C27.2168 29.1667 29.6624 27.074 30.1057 24.2346L30.6074 21.0263C30.7459 20.1425 30.062 19.3434 29.1666 19.3434H17.8834" stroke="#DBA237" stroke-width="1.5" stroke-linecap="round" stroke-linejoin="round"/>
<path d="M18.9583 8.925V8.75C18.9583 6.33354 20.9168 4.375 23.3333 4.375V4.375C25.7497 4.375 27.7083 6.33354 27.7083 8.75V19.3419" stroke="#DBA237" stroke-width="1.5" stroke-linecap="round" stroke-linejoin="round"/>
<path fill-rule="evenodd" clip-rule="evenodd" d="M14.8137 25.1752H13.278C11.5835 25.1752 10.2083 23.8015 10.2083 22.1054V19.1815C10.2083 18.2525 10.9608 17.5 11.8897 17.5H16.202C17.131 17.5 17.8835 18.2525 17.8835 19.1815V22.1054C17.8835 23.8015 16.5097 25.1752 14.8137 25.1752Z" stroke="#DBA237" stroke-width="1.5" stroke-linecap="round" stroke-linejoin="round"/>
<path d="M8.80841 28.875L7.29175 30.625" stroke="#DBA237" stroke-width="1.5" stroke-linecap="round" stroke-linejoin="round"/>
<path d="M27.7083 30.625L26.1917 28.875" stroke="#DBA237" stroke-width="1.5" stroke-linecap="round" stroke-linejoin="round"/>
</svg>
