<svg width="98" height="97" viewBox="0 0 98 97" fill="none" xmlns="http://www.w3.org/2000/svg">
<path fill-rule="evenodd" clip-rule="evenodd" d="M51.4535 13.2208L57.3139 10.3553C60.0178 9.03363 63.2875 10.0925 64.6981 12.756L67.7576 18.5194C68.5659 20.0391 70.029 21.102 71.7265 21.4011L78.1528 22.5288C81.1194 23.0501 83.1362 25.8268 82.7158 28.8095L81.8024 35.2681C81.5599 36.9737 82.1217 38.6954 83.318 39.9322L87.8528 44.6205C89.9464 46.7828 89.9464 50.2182 87.8528 52.3845L83.318 57.0729C82.1217 58.3096 81.5599 60.0314 81.8024 61.737L82.7158 68.1955C83.1362 71.1783 81.1194 73.9549 78.1528 74.4763L71.7265 75.6039C70.029 75.903 68.5659 76.966 67.7576 78.4856L64.6981 84.249C63.2875 86.9085 60.0219 87.9714 57.3139 86.6498L51.4535 83.7842C49.9056 83.0285 48.0989 83.0285 46.551 83.7842L40.6906 86.6498C37.9867 87.9714 34.717 86.9125 33.3064 84.249L30.2469 78.4816C29.4386 76.9619 27.9755 75.899 26.278 75.5999L19.8517 74.4723C16.8851 73.9509 14.8684 71.1742 15.2887 68.1915L16.2021 61.7329C16.4446 60.0273 15.8828 58.3056 14.6865 57.0688L10.1517 52.3805C8.05815 50.2182 8.05815 46.7828 10.1517 44.6165L14.6865 39.9281C15.8828 38.6914 16.4446 36.9696 16.2021 35.264L15.2927 28.8055C14.8684 25.8268 16.8892 23.0461 19.8558 22.5288L26.282 21.4011C27.9755 21.102 29.4386 20.0391 30.2469 18.5194L33.3064 12.756C34.717 10.0966 37.9826 9.03363 40.6906 10.3553L46.551 13.2208C48.0949 13.9766 49.9056 13.9766 51.4535 13.2208Z" fill="none" stroke="#D4B478" stroke-width="1.5" stroke-linecap="round" stroke-linejoin="round"/>
<path fill-rule="evenodd" clip-rule="evenodd" d="M37.7848 62.6296H32.1992C30.9504 62.6296 29.9399 61.6191 29.9399 60.3703V42.6597C29.9399 41.4108 30.9504 40.4004 32.1992 40.4004H37.7848C39.0337 40.4004 40.0441 41.4108 40.0441 42.8294V60.54C40.0441 61.6151 39.0337 62.6296 37.7848 62.6296Z" fill="none" stroke="#D4B478" stroke-width="1.5" stroke-linecap="round" stroke-linejoin="round"/>
<path fill-rule="evenodd" clip-rule="evenodd" d="M40.0441 57.8401L44.4172 61.4655C45.3225 62.2172 46.4663 62.6295 47.6424 62.6295H62.1237C63.9384 62.6295 65.5349 61.4251 66.036 59.6791L68.9945 49.3243C69.4432 47.7602 69.1805 46.0748 68.2792 44.7209C67.2607 43.1891 65.551 42.2716 63.7202 42.2716H61.2143H56.9908L57.011 35.3927C57.0272 30.28 50.314 28.3804 47.6465 32.7414L40.04 45.1937" fill="none"/>
<path d="M40.0441 57.8401L44.4172 61.4655C45.3225 62.2172 46.4663 62.6295 47.6424 62.6295H62.1237C63.9384 62.6295 65.5349 61.4251 66.036 59.6791L68.9945 49.3243C69.4432 47.7602 69.1805 46.0748 68.2792 44.7209C67.2607 43.1891 65.551 42.2716 63.7202 42.2716H61.2143H56.9908L57.011 35.3927C57.0272 30.28 50.314 28.3804 47.6465 32.7414L40.04 45.1937" stroke="#D4B478" stroke-width="1.5" stroke-linecap="round" stroke-linejoin="round"/>
</svg>
