<svg width="35" height="35" viewBox="0 0 35 35" fill="none" xmlns="http://www.w3.org/2000/svg">
<path d="M11.6641 30.6304V5.82845C11.6641 5.0227 12.3173 4.36951 13.123 4.36951H21.8766C22.6824 4.36951 23.3356 5.0227 23.3356 5.82845V30.6304" stroke="#DBA237" stroke-width="1.5" stroke-linecap="round" stroke-linejoin="round"/>
<path d="M30.6306 30.6305V11.5373C30.6306 10.8017 30.0343 10.2053 29.2986 10.2053H23.3359" stroke="#DBA237" stroke-width="1.5" stroke-linecap="round" stroke-linejoin="round"/>
<path d="M11.6643 10.2053H5.70164C4.96599 10.2053 4.36963 10.8017 4.36963 11.5373V30.6305" stroke="#DBA237" stroke-width="1.5" stroke-linecap="round" stroke-linejoin="round"/>
<path d="M23.3359 14.5821H26.9833" stroke="#DBA237" stroke-width="1.5" stroke-linecap="round" stroke-linejoin="round"/>
<path d="M23.3359 18.959H26.9833" stroke="#DBA237" stroke-width="1.5" stroke-linecap="round" stroke-linejoin="round"/>
<path d="M23.3359 23.3357H26.9833" stroke="#DBA237" stroke-width="1.5" stroke-linecap="round" stroke-linejoin="round"/>
<path d="M8.01709 14.5821H11.6644" stroke="#DBA237" stroke-width="1.5" stroke-linecap="round" stroke-linejoin="round"/>
<path d="M8.01709 18.959H11.6644" stroke="#DBA237" stroke-width="1.5" stroke-linecap="round" stroke-linejoin="round"/>
<path d="M8.01709 23.3357H11.6644" stroke="#DBA237" stroke-width="1.5" stroke-linecap="round" stroke-linejoin="round"/>
<path d="M15.3115 18.959H19.6883" stroke="#DBA237" stroke-width="1.5" stroke-linecap="round" stroke-linejoin="round"/>
<path d="M15.3115 23.3357H19.6883" stroke="#DBA237" stroke-width="1.5" stroke-linecap="round" stroke-linejoin="round"/>
<path d="M15.3115 14.5821H19.6883" stroke="#DBA237" stroke-width="1.5" stroke-linecap="round" stroke-linejoin="round"/>
<path d="M15.3115 10.2053H19.6883" stroke="#DBA237" stroke-width="1.5" stroke-linecap="round" stroke-linejoin="round"/>
<path d="M17.5 27.7125V30.6304" stroke="#DBA237" stroke-width="1.5" stroke-linecap="round" stroke-linejoin="round"/>
<path d="M32.0895 30.6305H2.91064" stroke="#DBA237" stroke-width="1.5" stroke-linecap="round" stroke-linejoin="round"/>
</svg>
