<svg width="132" height="62" viewBox="0 0 132 62" fill="none" xmlns="http://www.w3.org/2000/svg">
<path d="M4.53 33C4.53 31.66 4.81 30.47 5.37 29.43C5.95 28.39 6.73 27.57 7.71 26.97C8.71 26.37 9.86 26.07 11.16 26.07C12.56 26.07 13.77 26.4 14.79 27.06C15.83 27.72 16.63 28.6 17.19 29.7C17.75 30.8 18.03 32.03 18.03 33.39C18.03 34.73 17.75 35.91 17.19 36.93C16.63 37.95 15.85 38.75 14.85 39.33C13.85 39.89 12.7 40.17 11.4 40.17C10.12 40.17 8.96 39.87 7.92 39.27C6.88 38.67 6.05 37.83 5.43 36.75C4.83 35.67 4.53 34.42 4.53 33ZM0 33C0 34.58 0.27 36.05 0.81 37.41C1.37 38.75 2.15 39.92 3.15 40.92C4.17 41.92 5.36 42.7 6.72 43.26C8.08 43.8 9.56 44.07 11.16 44.07C12.78 44.07 14.26 43.8 15.6 43.26C16.94 42.7 18.1 41.92 19.08 40.92C20.08 39.92 20.85 38.75 21.39 37.41C21.93 36.05 22.2 34.58 22.2 33C22.2 31.4 21.92 29.94 21.36 28.62C20.82 27.28 20.05 26.12 19.05 25.14C18.07 24.16 16.91 23.41 15.57 22.89C14.23 22.35 12.76 22.08 11.16 22.08C9.58 22.08 8.11 22.35 6.75 22.89C5.41 23.41 4.23 24.16 3.21 25.14C2.19 26.12 1.4 27.28 0.84 28.62C0.28 29.94 0 31.4 0 33ZM9.84 34.5L19.47 43.77H24.24L14.49 34.5H9.84Z" fill="#333333"/>
<path d="M28.8246 39.21C28.8246 38.81 28.9146 38.48 29.0946 38.22C29.2746 37.94 29.5546 37.73 29.9346 37.59C30.3146 37.43 30.8046 37.35 31.4046 37.35C32.1446 37.35 32.8446 37.45 33.5046 37.65C34.1846 37.85 34.7946 38.15 35.3346 38.55V36.75C35.1346 36.51 34.8046 36.26 34.3446 36C33.8846 35.74 33.3146 35.52 32.6346 35.34C31.9746 35.16 31.2046 35.07 30.3246 35.07C28.6046 35.07 27.2746 35.46 26.3346 36.24C25.3946 37.02 24.9246 38.08 24.9246 39.42C24.9246 40.36 25.1446 41.16 25.5846 41.82C26.0446 42.46 26.6446 42.95 27.3846 43.29C28.1246 43.63 28.9246 43.8 29.7846 43.8C30.6246 43.8 31.4246 43.65 32.1846 43.35C32.9646 43.05 33.5946 42.6 34.0746 42C34.5746 41.4 34.8246 40.66 34.8246 39.78L34.3446 37.98C34.3446 38.64 34.1946 39.21 33.8946 39.69C33.5946 40.15 33.2046 40.51 32.7246 40.77C32.2446 41.01 31.7046 41.13 31.1046 41.13C30.6846 41.13 30.2946 41.06 29.9346 40.92C29.5946 40.76 29.3246 40.54 29.1246 40.26C28.9246 39.96 28.8246 39.61 28.8246 39.21ZM27.3246 33.6C27.5246 33.46 27.8346 33.29 28.2546 33.09C28.6746 32.89 29.1746 32.72 29.7546 32.58C30.3346 32.44 30.9446 32.37 31.5846 32.37C32.0046 32.37 32.3846 32.41 32.7246 32.49C33.0646 32.57 33.3546 32.7 33.5946 32.88C33.8546 33.06 34.0446 33.29 34.1646 33.57C34.2846 33.83 34.3446 34.15 34.3446 34.53V43.5H38.0946V33.72C38.0946 32.78 37.8346 31.99 37.3146 31.35C36.7946 30.69 36.0746 30.19 35.1546 29.85C34.2346 29.51 33.1846 29.34 32.0046 29.34C30.7246 29.34 29.5646 29.52 28.5246 29.88C27.4846 30.22 26.6046 30.58 25.8846 30.96L27.3246 33.6Z" fill="#333333"/>
<path d="M47.8891 33.24L40.2391 43.5H53.5591V39.96H47.0191L54.4291 29.7H41.4091V33.24H47.8891Z" fill="#333333"/>
<path d="M60.9752 38.73H72.0752L71.5652 35.34H61.4852L60.9752 38.73ZM66.4652 29.31L69.6152 36.6L69.5552 37.68L72.2552 43.5H77.1152L66.4652 21.27L55.8152 43.5H60.6452L63.4052 37.5L63.3152 36.54L66.4652 29.31Z" fill="#333333"/>
<path d="M82.8434 50.1V29.7H78.9434V50.1H82.8434ZM94.1834 36.6C94.1834 35.02 93.8734 33.69 93.2534 32.61C92.6334 31.51 91.8134 30.68 90.7934 30.12C89.7934 29.56 88.7134 29.28 87.5534 29.28C86.3734 29.28 85.3434 29.58 84.4634 30.18C83.6034 30.78 82.9334 31.63 82.4534 32.73C81.9934 33.81 81.7634 35.1 81.7634 36.6C81.7634 38.08 81.9934 39.37 82.4534 40.47C82.9334 41.57 83.6034 42.42 84.4634 43.02C85.3434 43.62 86.3734 43.92 87.5534 43.92C88.7134 43.92 89.7934 43.64 90.7934 43.08C91.8134 42.52 92.6334 41.69 93.2534 40.59C93.8734 39.49 94.1834 38.16 94.1834 36.6ZM90.1634 36.6C90.1634 37.42 89.9934 38.12 89.6534 38.7C89.3134 39.28 88.8534 39.72 88.2734 40.02C87.7134 40.32 87.0934 40.47 86.4134 40.47C85.8334 40.47 85.2634 40.33 84.7034 40.05C84.1634 39.75 83.7134 39.31 83.3534 38.73C83.0134 38.15 82.8434 37.44 82.8434 36.6C82.8434 35.76 83.0134 35.05 83.3534 34.47C83.7134 33.89 84.1634 33.46 84.7034 33.18C85.2634 32.88 85.8334 32.73 86.4134 32.73C87.0934 32.73 87.7134 32.88 88.2734 33.18C88.8534 33.48 89.3134 33.92 89.6534 34.5C89.9934 35.08 90.1634 35.78 90.1634 36.6Z" fill="#333333"/>
<path d="M99.8402 39.21C99.8402 38.81 99.9302 38.48 100.11 38.22C100.29 37.94 100.57 37.73 100.95 37.59C101.33 37.43 101.82 37.35 102.42 37.35C103.16 37.35 103.86 37.45 104.52 37.65C105.2 37.85 105.81 38.15 106.35 38.55V36.75C106.15 36.51 105.82 36.26 105.36 36C104.9 35.74 104.33 35.52 103.65 35.34C102.99 35.16 102.22 35.07 101.34 35.07C99.6202 35.07 98.2902 35.46 97.3502 36.24C96.4102 37.02 95.9402 38.08 95.9402 39.42C95.9402 40.36 96.1602 41.16 96.6002 41.82C97.0602 42.46 97.6602 42.95 98.4002 43.29C99.1402 43.63 99.9402 43.8 100.8 43.8C101.64 43.8 102.44 43.65 103.2 43.35C103.98 43.05 104.61 42.6 105.09 42C105.59 41.4 105.84 40.66 105.84 39.78L105.36 37.98C105.36 38.64 105.21 39.21 104.91 39.69C104.61 40.15 104.22 40.51 103.74 40.77C103.26 41.01 102.72 41.13 102.12 41.13C101.7 41.13 101.31 41.06 100.95 40.92C100.61 40.76 100.34 40.54 100.14 40.26C99.9402 39.96 99.8402 39.61 99.8402 39.21ZM98.3402 33.6C98.5402 33.46 98.8502 33.29 99.2702 33.09C99.6902 32.89 100.19 32.72 100.77 32.58C101.35 32.44 101.96 32.37 102.6 32.37C103.02 32.37 103.4 32.41 103.74 32.49C104.08 32.57 104.37 32.7 104.61 32.88C104.87 33.06 105.06 33.29 105.18 33.57C105.3 33.83 105.36 34.15 105.36 34.53V43.5H109.11V33.72C109.11 32.78 108.85 31.99 108.33 31.35C107.81 30.69 107.09 30.19 106.17 29.85C105.25 29.51 104.2 29.34 103.02 29.34C101.74 29.34 100.58 29.52 99.5402 29.88C98.5002 30.22 97.6202 30.58 96.9002 30.96L98.3402 33.6Z" fill="#333333"/>
<path d="M116.535 29.7H112.725V43.5H116.535V29.7ZM120.585 33.75L122.355 30.45C122.075 30.09 121.705 29.82 121.245 29.64C120.805 29.46 120.335 29.37 119.835 29.37C119.115 29.37 118.415 29.63 117.735 30.15C117.055 30.65 116.505 31.33 116.085 32.19C115.665 33.03 115.455 34 115.455 35.1L116.535 36.18C116.535 35.52 116.615 34.96 116.775 34.5C116.955 34.02 117.215 33.65 117.555 33.39C117.895 33.13 118.305 33 118.785 33C119.185 33 119.515 33.07 119.775 33.21C120.055 33.33 120.325 33.51 120.585 33.75Z" fill="#333333"/>
<path d="M122.644 29.7V32.97H131.164V29.7H122.644ZM125.014 24.9V43.5H128.764V24.9H125.014Z" fill="#333333"/>
<path d="M44.9199 21.6202L66.9199 1M44.9313 60.4999H86.9313M87.0973 21.8482L65.9199 1.5M45.9313 47.4999V59.4999M85.9313 47.4999V59.4999" stroke="#DBA237" stroke-width="2"/>
</svg>
