<svg width="76" height="75" viewBox="0 0 76 75" fill="none" xmlns="http://www.w3.org/2000/svg">
<path fill-rule="evenodd" clip-rule="evenodd" d="M58.6036 38.0007L36.7826 55.4575C35.1738 56.7445 32.8545 56.6161 31.3977 55.1592L20.3423 44.1038C18.8854 42.647 18.757 40.3277 20.044 38.7189L37.5008 16.8979C45.4833 6.91985 57.5686 1.11133 70.3468 1.11133C72.5799 1.11133 74.3902 2.9216 74.3902 5.15468C74.3902 17.9329 68.5817 30.0183 58.6036 38.0007Z" fill="white"/>
<path fill-rule="evenodd" clip-rule="evenodd" d="M54.1734 41.5448V59.2628C54.1734 60.7943 53.3081 62.1943 51.9383 62.8793L42.1698 67.7636C41.1215 68.2878 39.8972 68.3312 38.8143 67.8827C37.7314 67.4341 36.8964 66.5377 36.5258 65.4258L33.9567 57.7182" fill="white"/>
<path fill-rule="evenodd" clip-rule="evenodd" d="M17.7833 41.5448L10.076 38.9757C8.96402 38.6051 8.06761 37.7701 7.61906 36.6872C7.1705 35.6043 7.21394 34.38 7.73813 33.3317L12.6225 23.5632C13.3074 22.1935 14.7073 21.3281 16.2387 21.3281H33.9567" fill="white"/>
<path fill-rule="evenodd" clip-rule="evenodd" d="M12.7295 72.2211L1.60986 73.8916L3.28037 62.772C3.82228 59.1648 6.65396 56.3331 10.2612 55.7912C12.8678 55.3995 15.5057 56.2682 17.3696 58.1321C19.2335 59.996 20.1022 62.6338 19.7105 65.2405C19.1685 68.8477 16.3367 71.6793 12.7295 72.2211Z" fill="white"/>
<path d="M54.1734 41.5448V59.2628C54.1734 60.7943 53.3081 62.1943 51.9383 62.8793L42.1698 67.7636C41.1215 68.2878 39.8972 68.3312 38.8143 67.8827C37.7314 67.4341 36.8964 66.5377 36.5258 65.4258L33.9567 57.7182M17.7833 41.5448L10.076 38.9757C8.96402 38.6051 8.06761 37.7701 7.61906 36.6872C7.1705 35.6043 7.21394 34.38 7.73813 33.3317L12.6225 23.5632C13.3074 22.1935 14.7073 21.3281 16.2387 21.3281H33.9567M58.6036 38.0007L36.7826 55.4575C35.1738 56.7445 32.8545 56.6161 31.3977 55.1592L20.3423 44.1038C18.8854 42.647 18.757 40.3277 20.044 38.7189L37.5008 16.8979C45.4833 6.91985 57.5686 1.11133 70.3468 1.11133C72.5799 1.11133 74.3902 2.9216 74.3902 5.15468C74.3902 17.9329 68.5817 30.0183 58.6036 38.0007ZM12.7295 72.2211L1.60986 73.8916L3.28037 62.772C3.82228 59.1648 6.65396 56.3331 10.2612 55.7912C12.8678 55.3995 15.5057 56.2682 17.3696 58.1321C19.2335 59.996 20.1022 62.6338 19.7105 65.2405C19.1685 68.8477 16.3367 71.6793 12.7295 72.2211Z" stroke="#D4B478" stroke-width="1.5" stroke-linecap="round" stroke-linejoin="round"/>
</svg>
