<svg width="88" height="24" viewBox="0 0 88 24" fill="none" xmlns="http://www.w3.org/2000/svg">
<g filter="url(#filter0_d_132_522)">
<g clip-path="url(#clip0_132_522)">
<path d="M12 11.5133L14.7667 13.1866C15.2734 13.4933 15.8934 13.0399 15.76 12.4666L15.0267 9.31992L17.4734 7.19993C17.92 6.81326 17.68 6.07993 17.0934 6.03326L13.8734 5.75993L12.6134 2.78659C12.3867 2.24659 11.6134 2.24659 11.3867 2.78659L10.1267 5.75326L6.90672 6.02659C6.32005 6.07326 6.08005 6.80659 6.52672 7.19326L8.97338 9.31326L8.24005 12.4599C8.10672 13.0333 8.72671 13.4866 9.23338 13.1799L12 11.5133Z" fill="#D4B478"/>
</g>
<g clip-path="url(#clip1_132_522)">
<path d="M28 11.5133L30.7667 13.1866C31.2734 13.4933 31.8934 13.0399 31.76 12.4666L31.0267 9.31992L33.4734 7.19993C33.92 6.81326 33.68 6.07993 33.0934 6.03326L29.8734 5.75993L28.6134 2.78659C28.3867 2.24659 27.6134 2.24659 27.3867 2.78659L26.1267 5.75326L22.9067 6.02659C22.32 6.07326 22.08 6.80659 22.5267 7.19326L24.9734 9.31326L24.24 12.4599C24.1067 13.0333 24.7267 13.4866 25.2334 13.1799L28 11.5133Z" fill="#D4B478"/>
</g>
<g clip-path="url(#clip2_132_522)">
<path d="M44 11.5133L46.7667 13.1866C47.2734 13.4933 47.8934 13.0399 47.76 12.4666L47.0267 9.31992L49.4734 7.19993C49.92 6.81326 49.68 6.07993 49.0934 6.03326L45.8734 5.75993L44.6134 2.78659C44.3867 2.24659 43.6134 2.24659 43.3867 2.78659L42.1267 5.75326L38.9067 6.02659C38.32 6.07326 38.08 6.80659 38.5267 7.19326L40.9734 9.31326L40.24 12.4599C40.1067 13.0333 40.7267 13.4866 41.2334 13.1799L44 11.5133Z" fill="#D4B478"/>
</g>
<g clip-path="url(#clip3_132_522)">
<path d="M60 11.5133L62.7667 13.1866C63.2734 13.4933 63.8934 13.0399 63.76 12.4666L63.0267 9.31992L65.4734 7.19993C65.92 6.81326 65.68 6.07993 65.0934 6.03326L61.8734 5.75993L60.6134 2.78659C60.3867 2.24659 59.6134 2.24659 59.3867 2.78659L58.1267 5.75326L54.9067 6.02659C54.32 6.07326 54.08 6.80659 54.5267 7.19326L56.9734 9.31326L56.24 12.4599C56.1067 13.0333 56.7267 13.4866 57.2334 13.1799L60 11.5133Z" fill="#D4B478"/>
</g>
<g clip-path="url(#clip4_132_522)">
<path d="M81.1 6.02667L77.8734 5.74667L76.6134 2.78C76.3867 2.24 75.6134 2.24 75.3867 2.78L74.1267 5.75333L70.9067 6.02667C70.32 6.07333 70.08 6.80667 70.5267 7.19333L72.9734 9.31333L72.24 12.46C72.1067 13.0333 72.7267 13.4867 73.2334 13.18L76 11.5133L78.7667 13.1867C79.2734 13.4933 79.8934 13.04 79.76 12.4667L79.0267 9.31333L81.4734 7.19333C81.92 6.80667 81.6867 6.07333 81.1 6.02667V6.02667ZM76 10.2667V4.06667L77.14 6.76L80.06 7.01333L77.8467 8.93333L78.5134 11.7867L76 10.2667Z" fill="#D4B478"/>
</g>
</g>
<defs>
<filter id="filter0_d_132_522" x="0" y="0" width="88" height="24" filterUnits="userSpaceOnUse" color-interpolation-filters="sRGB">
<feFlood flood-opacity="0" result="BackgroundImageFix"/>
<feColorMatrix in="SourceAlpha" type="matrix" values="0 0 0 0 0 0 0 0 0 0 0 0 0 0 0 0 0 0 127 0" result="hardAlpha"/>
<feOffset dy="4"/>
<feGaussianBlur stdDeviation="2"/>
<feComposite in2="hardAlpha" operator="out"/>
<feColorMatrix type="matrix" values="0 0 0 0 0 0 0 0 0 0 0 0 0 0 0 0 0 0 0.25 0"/>
<feBlend mode="normal" in2="BackgroundImageFix" result="effect1_dropShadow_132_522"/>
<feBlend mode="normal" in="SourceGraphic" in2="effect1_dropShadow_132_522" result="shape"/>
</filter>
<clipPath id="clip0_132_522">
<rect width="16" height="16" fill="white" transform="translate(4)"/>
</clipPath>
<clipPath id="clip1_132_522">
<rect width="16" height="16" fill="white" transform="translate(20)"/>
</clipPath>
<clipPath id="clip2_132_522">
<rect width="16" height="16" fill="white" transform="translate(36)"/>
</clipPath>
<clipPath id="clip3_132_522">
<rect width="16" height="16" fill="white" transform="translate(52)"/>
</clipPath>
<clipPath id="clip4_132_522">
<rect width="16" height="16" fill="white" transform="translate(68)"/>
</clipPath>
</defs>
</svg>
